<svg xmlns="http://www.w3.org/2000/svg" viewBox="0 0 194 40" role="img" aria-labelledby="title">
  <title id="title">Smolify</title>
  <g transform="translate(4 4)">
    <rect width="32" height="32" rx="10" fill="#C7FF5A"/>
    <path d="M22.9 10.7c-1.4-1.5-3.5-2.3-6.1-2.3-3.1 0-5.3 1.3-5.3 3.4 0 5.5 10.2 2.3 10.2 7.5 0 2.6-2.4 4.3-6 4.3-2.8 0-5.2-.9-6.8-2.8l2.8-2.2c1 1.2 2.4 1.8 4 1.8 1.3 0 2.1-.4 2.1-1.1 0-2-10.2-.9-10.2-7.5 0-4 3.6-6.7 9.1-6.7 3.8 0 6.9 1.1 8.9 3.3l-2.7 2.3Z" fill="#151515"/>
    <circle cx="24.5" cy="23.5" r="2.2" fill="#7467F0"/>
  </g>
  <text x="48" y="28" fill="#151515" font-family="Inter, ui-sans-serif, system-ui, sans-serif" font-size="27" font-weight="750" letter-spacing="-1.2">Smolify</text>
</svg>
